<svg width="228" height="40" viewBox="0 0 228 40" fill="none" xmlns="http://www.w3.org/2000/svg">
<path fill-rule="evenodd" clip-rule="evenodd" d="M10.9042 10.8165C11.2384 10.8165 11.5697 10.8292 11.8957 10.8554V3.13367H17.5463V27.9251C17.085 28.2362 16.5937 28.5158 16.077 28.7588C14.5382 29.4864 12.7758 29.8991 10.9042 29.8991C4.88195 29.8991 0 25.6274 0 20.3582C0 15.0882 4.88195 10.8165 10.9042 10.8165ZM10.9042 25.0853C11.2429 25.0853 11.557 25.0404 11.8957 24.9096V15.7103C11.5749 15.658 11.2429 15.6303 10.9042 15.6303C7.91999 15.6303 5.50108 17.7471 5.50108 20.3582C5.50108 22.9692 7.92074 25.0853 10.9042 25.0853ZM34.4981 12.0682C34.4488 12.0435 34.3995 12.0188 34.3494 11.9957C32.7911 11.2442 31.0003 10.8165 29.0951 10.8165C29.0121 10.8165 28.9298 10.8173 28.8476 10.8195V3.13367H23.1969V16.9635L28.8476 15.6348C28.9291 15.6326 29.0121 15.6303 29.0951 15.6303C31.6448 15.6303 33.7826 17.1759 34.3494 19.2545C34.4466 19.6082 34.4982 19.9776 34.4982 20.3582V28.7596H40V20.3582C40 16.808 37.7852 13.7117 34.4981 12.0682ZM27.5502 21.7437L23.1969 22.7681V28.7588C23.1969 29.1387 23.1461 29.5081 23.0481 29.8625C22.6339 31.3811 21.4614 32.6148 19.8665 33.1696L23.6957 36.8664C26.789 35.1825 28.8476 32.1819 28.8476 28.7596V22.7726C28.8476 22.0914 28.2127 21.5882 27.5502 21.7437Z" fill="url(#paint0_linear_946_402)"/>
<path fill-rule="evenodd" clip-rule="evenodd" d="M64.667 13.2854C64.9325 13.2854 65.1958 13.2954 65.4547 13.3164H65.4558V6H69.9469V26.885C69.5796 27.1327 69.1892 27.354 68.7788 27.5476C67.5553 28.125 66.1549 28.4535 64.667 28.4535C59.8805 28.4535 56 25.0575 56 20.8695C56 16.6814 59.8805 13.2854 64.667 13.2854ZM64.667 24.6272C64.9358 24.6272 65.1847 24.5918 65.4547 24.4878V17.1748C65.2002 17.1338 64.9358 17.1117 64.667 17.1117C62.2954 17.1117 60.3728 18.7942 60.3728 20.8695C60.3728 22.9447 62.2954 24.6272 64.667 24.6272ZM207.573 13.2854C207.839 13.2854 208.102 13.2954 208.361 13.3164H208.362V6H212.853V26.885C212.486 27.1327 212.095 27.354 211.685 27.5476C210.461 28.125 209.061 28.4535 207.573 28.4535C202.787 28.4535 198.906 25.0575 198.906 20.8695C198.906 16.6814 202.787 13.2854 207.573 13.2854ZM207.573 24.6272C207.842 24.6272 208.091 24.5918 208.361 24.4878V17.1748C208.106 17.1338 207.842 17.1117 207.573 17.1117C205.201 17.1117 203.279 18.7942 203.279 20.8695C203.279 22.9447 205.201 24.6272 207.573 24.6272ZM93.3031 13.8993C92.7865 13.354 92.0984 12.9336 91.2411 12.6416C90.3827 12.3496 89.3108 12.2024 88.0232 12.2024C87.5155 12.2024 87.0143 12.2268 86.5166 12.2754C86.0199 12.3241 85.5464 12.3828 85.0973 12.4502C84.6482 12.5188 84.2345 12.5962 83.854 12.6847C83.4734 12.7732 83.1559 12.8562 82.9037 12.9336L83.75 16.3418C84.1017 16.2146 84.6106 16.0974 85.3318 15.9901C86.0531 15.8828 86.7843 15.8297 87.5254 15.8297C88.6371 15.8297 89.417 16.0542 89.865 16.5022C90.313 16.9513 90.5376 17.5454 90.5376 18.2865V18.6958C90.2643 18.6184 89.9093 18.5542 89.4701 18.5055C89.0309 18.4569 88.5287 18.4325 87.9635 18.4325C87.125 18.4325 86.3152 18.5155 85.5354 18.6814C84.7555 18.8474 84.063 19.1162 83.4579 19.4856C82.8528 19.8562 82.3705 20.354 82.0099 20.9779C81.6493 21.6018 81.469 22.3628 81.469 23.2589C81.469 24.5254 81.7621 25.7124 82.7068 26.6084C83.2765 27.1493 83.979 27.5332 84.7079 27.8252C85.7411 28.2389 86.8418 28.4746 87.9513 28.5498C89.9093 28.6814 91.8971 28.3241 93.7079 27.5763L93.7872 27.5432C93.9643 27.4691 94.1388 27.3961 94.3208 27.3374C94.3772 27.3197 94.7201 27.2102 94.7201 27.1372V18.4912C94.7201 17.5354 94.6128 16.667 94.3982 15.8872C94.1847 15.1084 93.8197 14.4447 93.3031 13.8993ZM90.5387 24.6217C90.5232 24.6316 90.5066 24.6405 90.49 24.6493C90.0652 24.8905 89.5619 24.9347 89.0829 24.9502C88.8462 24.958 88.6095 24.9591 88.3728 24.9546C88.2201 24.9513 88.0674 24.9458 87.9148 24.937C87.4236 24.9104 86.9159 24.8075 86.4856 24.5597C86.0276 24.2965 85.7975 23.8241 85.7975 23.1405C85.7975 22.7898 85.875 22.4967 86.032 22.2633C86.188 22.0288 86.4026 21.844 86.6759 21.7069C86.9491 21.5708 87.2655 21.4779 87.6261 21.4292C87.9867 21.3805 88.3716 21.3562 88.782 21.3562C89.0741 21.3562 89.396 21.3761 89.7478 21.4148C90.0984 21.4535 90.3617 21.4934 90.5376 21.5321V24.6217H90.5387ZM126.284 12.5244C126.83 12.6029 127.352 12.6947 127.85 12.802C128.347 12.9093 128.791 13.021 129.18 13.1383C129.864 13.3153 130.694 13.5531 131.605 13.8706L130.989 17.1018C130.195 16.8673 129.656 16.7312 129.18 16.6173V26.0675C129.18 28.583 128.541 30.4502 127.264 31.6693C125.987 32.8883 124.012 33.4978 121.341 33.4978C120.404 33.4978 119.468 33.4148 118.532 33.2489C117.595 33.083 116.728 32.864 115.928 32.5907L116.689 28.9336C117.372 29.2069 118.088 29.4204 118.84 29.5774C119.591 29.7334 120.444 29.812 121.399 29.812C122.647 29.812 123.53 29.5387 124.046 28.9934C124.563 28.4469 124.822 27.7456 124.822 26.8872V26.3319C124.354 26.5476 123.871 26.708 123.374 26.8153C122.876 26.9226 122.335 26.9757 121.75 26.9757C119.624 26.9757 117.996 26.3463 116.865 25.0885C115.733 23.8308 115.168 22.0708 115.168 19.8086C115.168 18.6781 115.344 17.6494 115.695 16.7224C116.045 15.7965 116.558 15.0022 117.23 14.3385C117.904 13.6748 118.727 13.1637 119.702 12.802C120.677 12.4414 121.779 12.2611 123.008 12.2611C123.534 12.2611 124.076 12.2854 124.632 12.3341C125.187 12.3828 125.738 12.4469 126.284 12.5244ZM123.827 23.2887C124.217 23.1726 124.549 23.0365 124.822 22.8794H124.823V15.9159C124.607 15.8772 124.355 15.844 124.062 15.8142C123.769 15.7843 123.428 15.7699 123.038 15.7699C121.887 15.7699 121.029 16.1494 120.463 16.9104C119.897 17.6715 119.615 18.6361 119.615 19.8064C119.615 22.2456 120.6 23.4635 122.57 23.4635C123.018 23.4635 123.437 23.406 123.827 23.2887ZM145.562 14.4247C144.899 13.7223 144.104 13.1769 143.178 12.7864C142.251 12.3971 141.232 12.2013 140.121 12.2013C139.028 12.2013 138.019 12.3971 137.093 12.7864C136.166 13.1769 135.367 13.7223 134.694 14.4247C134.021 15.1271 133.494 15.9756 133.114 16.969C132.733 17.9634 132.543 19.0652 132.543 20.2743C132.543 21.4833 132.728 22.5906 133.098 23.5951C133.469 24.5995 133.986 25.4579 134.649 26.1692C135.312 26.8816 136.107 27.4325 137.033 27.8218C137.959 28.2123 138.988 28.407 140.12 28.407C141.27 28.407 142.309 28.2112 143.236 27.8218C144.162 27.4325 144.956 26.8816 145.62 26.1692C146.282 25.4579 146.79 24.5995 147.141 23.5951C147.492 22.5906 147.667 21.4844 147.667 20.2743C147.667 19.0652 147.481 17.9634 147.112 16.969C146.741 15.9756 146.225 15.1271 145.562 14.4247ZM142.417 23.4789C141.881 24.2687 141.115 24.6637 140.121 24.6637C139.126 24.6637 138.355 24.2687 137.81 23.4789C137.264 22.6891 136.991 21.6216 136.991 20.2754C136.991 18.9302 137.264 17.8727 137.81 17.1017C138.355 16.3318 139.126 15.9457 140.121 15.9457C141.115 15.9457 141.881 16.3307 142.417 17.1017C142.954 17.8727 143.221 18.9302 143.221 20.2754C143.222 21.6216 142.954 22.6891 142.417 23.4789ZM171.42 12.729C172.308 12.3772 173.219 12.2024 174.155 12.2024C176.339 12.2024 178.064 12.8706 179.332 14.2047C180.6 15.5409 181.233 17.5066 181.233 20.0996C181.233 20.354 181.223 20.6316 181.205 20.9336C181.185 21.2356 181.165 21.5033 181.146 21.7378H171.259C171.356 22.635 171.775 23.3462 172.517 23.8728C173.258 24.3993 174.252 24.6626 175.5 24.6626C176.3 24.6626 177.084 24.5896 177.855 24.4436C178.625 24.2976 179.038 24.2069 179.525 23.9923L180.327 27.4425C180.094 27.5586 179.781 27.6759 179.392 27.7931C179.001 27.9104 178.568 28.0122 178.09 28.1007C177.612 28.1881 177.101 28.2611 176.554 28.3197C176.008 28.3783 175.461 28.4082 174.916 28.4082C173.531 28.4082 172.326 28.2035 171.303 27.7943C170.28 27.3839 169.431 26.8241 168.759 26.1117C168.085 25.4004 167.589 24.5575 167.267 23.5819C166.945 22.6073 166.784 21.5542 166.784 20.4226C166.784 19.0586 166.993 17.8628 167.413 16.8396C167.832 15.8164 168.383 14.9624 169.065 14.2799C169.748 13.5973 170.533 13.0797 171.42 12.729ZM171.537 17.6571C171.409 18.0188 171.318 18.3839 171.259 18.7544H177.021C177.001 18.3839 176.938 18.0232 176.831 17.6726C176.723 17.3208 176.558 17.0089 176.333 16.7356C176.108 16.4635 175.825 16.2389 175.485 16.0631C175.144 15.8883 174.719 15.7998 174.212 15.7998C173.725 15.7998 173.305 15.8828 172.955 16.0487C172.604 16.2146 172.311 16.4336 172.077 16.7069C171.844 16.9801 171.664 17.2965 171.537 17.6571ZM227.295 22.1028C227.149 21.6172 226.895 21.1736 226.535 20.7743C226.174 20.376 225.681 20.0044 225.059 19.6603C224.434 19.3163 223.645 18.9667 222.689 18.6128C222.221 18.4358 221.835 18.2743 221.533 18.126C221.231 17.9789 220.992 17.8417 220.816 17.7145C220.641 17.5873 220.523 17.4568 220.466 17.3196C220.407 17.1836 220.377 17.0265 220.377 16.8517C220.377 16.0917 221.06 15.7112 222.425 15.7112C223.166 15.7112 223.834 15.7798 224.429 15.9159L224.516 15.9359C225.048 16.0586 225.288 16.1139 225.769 16.2809L226.842 12.9911C226.334 12.7964 225.652 12.6161 224.794 12.4502C223.936 12.2842 223.039 12.2013 222.103 12.2013C220.231 12.2013 218.758 12.6205 217.686 13.459C216.613 14.2975 216.077 15.4391 216.077 16.8816C216.077 17.6227 216.185 18.2566 216.399 18.7831C216.614 19.3097 216.916 19.7632 217.306 20.1437C217.697 20.5243 218.169 20.8506 218.726 21.1238C219.281 21.3971 219.9 21.6603 220.583 21.9137C221.46 22.2455 222.114 22.542 222.543 22.8064C222.972 23.0696 223.187 23.376 223.187 23.7278C223.187 24.1769 223.021 24.4789 222.689 24.6349C222.357 24.7909 221.792 24.8694 220.992 24.8694C220.232 24.8694 219.461 24.7864 218.681 24.6205C217.902 24.4546 217.364 24.3108 216.623 24.0187L215.668 27.4734C216.019 27.6305 216.648 27.8241 217.555 28.0586C218.462 28.2931 219.598 28.4092 220.963 28.4092C223.05 28.4092 224.664 28.0198 225.805 27.2411C226.946 26.4623 227.517 25.3141 227.517 23.7964C227.514 23.1548 227.441 22.5895 227.295 22.1028ZM107.838 13.2207L107.857 13.2298L107.875 13.2385L107.896 13.2489C110.493 14.5487 112.246 16.9967 112.246 19.802V27.9967H107.896V19.802C107.896 19.5 107.855 19.208 107.78 18.9281C107.332 17.2887 105.643 16.0664 103.625 16.0664C103.561 16.0664 102.826 16.0664 102.763 16.0697V27.9967H98.2976V12.2622H102.763C102.796 12.2622 102.997 12.2613 103.197 12.2605C103.396 12.2597 103.594 12.2588 103.625 12.2588C105.131 12.2588 106.546 12.5984 107.78 13.1925C107.799 13.2019 107.818 13.2113 107.838 13.2207ZM159.883 13.2501C159.853 13.235 159.824 13.2206 159.794 13.2064L159.765 13.1925C158.533 12.5985 157.118 12.2611 155.613 12.2611C155.548 12.2611 154.815 12.2611 154.751 12.2633V10.9293V6.00117H150.285V10.9293V17.1206V28.0001H154.751V16.0687C154.815 16.0664 155.548 16.0653 155.613 16.0653C157.628 16.0653 159.317 17.2866 159.765 18.9304C159.843 19.2102 159.883 19.5023 159.883 19.8021V27.999H164.231V19.8021C164.231 16.9956 162.481 14.5487 159.883 13.2501ZM73.9867 6H78.3994V10.5321H73.9867V6ZM73.9535 27.6184C73.9535 27.917 73.9126 28.2091 73.8374 28.489C73.5122 29.6847 72.5896 30.6527 71.3341 31.0896L74.1106 33.7721L74.3462 34C76.7821 32.6737 78.4004 30.312 78.4004 27.6184V12.6117H73.9878L73.9535 27.6184ZM192.97 12.6416C193.827 12.9336 194.515 13.354 195.032 13.8993C195.549 14.4447 195.915 15.1084 196.127 15.8872C196.342 16.667 196.449 17.5354 196.449 18.4912V27.1372C196.449 27.2102 196.106 27.3197 196.05 27.3374C195.868 27.3961 195.693 27.4691 195.516 27.5432C195.49 27.5542 195.463 27.5653 195.437 27.5763C193.626 28.3241 191.638 28.6814 189.68 28.5498C188.571 28.4746 187.47 28.2389 186.437 27.8252C185.708 27.5332 185.006 27.1493 184.436 26.6084C183.491 25.7124 183.198 24.5254 183.198 23.2589C183.198 22.3628 183.378 21.6018 183.739 20.9779C184.1 20.354 184.582 19.8562 185.187 19.4856C185.792 19.1162 186.484 18.8474 187.264 18.6814C188.044 18.5155 188.854 18.4325 189.692 18.4325C190.258 18.4325 190.76 18.4569 191.199 18.5055C191.638 18.5542 191.993 18.6184 192.267 18.6958V18.2865C192.267 17.5454 192.042 16.9513 191.594 16.5022C191.146 16.0542 190.366 15.8297 189.254 15.8297C188.513 15.8297 187.782 15.8828 187.061 15.9901C186.34 16.0974 185.831 16.2146 185.479 16.3418L184.633 12.9336C184.885 12.8562 185.202 12.7732 185.583 12.6847C185.963 12.5962 186.377 12.5188 186.826 12.4502C187.275 12.3828 187.749 12.3241 188.246 12.2754C188.743 12.2268 189.244 12.2024 189.752 12.2024C191.04 12.2024 192.112 12.3496 192.97 12.6416ZM192.219 24.6493C192.236 24.6405 192.252 24.6316 192.268 24.6217V21.5321C192.092 21.4934 191.829 21.4535 191.478 21.4148C191.126 21.3761 190.804 21.3562 190.512 21.3562C190.102 21.3562 189.717 21.3805 189.356 21.4292C188.996 21.4779 188.679 21.5708 188.406 21.7069C188.133 21.844 187.918 22.0288 187.762 22.2633C187.605 22.4967 187.528 22.7898 187.528 23.1405C187.528 23.8241 187.758 24.2965 188.216 24.5597C188.646 24.8075 189.154 24.9104 189.645 24.937C189.798 24.9458 189.95 24.9513 190.103 24.9546C190.338 24.9591 190.575 24.958 190.812 24.9502C191.291 24.9347 191.794 24.8905 192.219 24.6493Z" fill="white"/>
<defs>
<linearGradient id="paint0_linear_946_402" x1="-0.927765" y1="16.516" x2="39.0899" y2="16.516" gradientUnits="userSpaceOnUse">
<stop stop-color="#B021F5"/>
<stop offset="1" stop-color="#5034FF"/>
</linearGradient>
</defs>
</svg>
