<svg width="40" height="40" viewBox="0 0 40 40" fill="none" xmlns="http://www.w3.org/2000/svg">
<path fill-rule="evenodd" clip-rule="evenodd" d="M10.9042 10.8165C11.2384 10.8165 11.5697 10.8292 11.8957 10.8554V3.13364H17.5463V27.9251C17.085 28.2362 16.5937 28.5158 16.077 28.7588C14.5382 29.4863 12.7758 29.8991 10.9042 29.8991C4.88195 29.8991 0 25.6273 0 20.3582C0 15.0882 4.88195 10.8165 10.9042 10.8165ZM10.9042 25.0853C11.2429 25.0853 11.557 25.0404 11.8957 24.9095V15.7103C11.5749 15.658 11.2429 15.6303 10.9042 15.6303C7.91999 15.6303 5.50108 17.7471 5.50108 20.3582C5.50108 22.9692 7.92074 25.0853 10.9042 25.0853ZM34.4981 12.0681C34.4488 12.0435 34.3995 12.0188 34.3494 11.9956C32.7911 11.2442 31.0003 10.8165 29.0951 10.8165C29.0121 10.8165 28.9298 10.8172 28.8476 10.8195V3.13364H23.1969V16.9635L28.8476 15.6348C28.9291 15.6326 29.0121 15.6303 29.0951 15.6303C31.6448 15.6303 33.7826 17.1758 34.3494 19.2545C34.4466 19.6082 34.4982 19.9776 34.4982 20.3582V28.7596H40V20.3582C40 16.808 37.7852 13.7116 34.4981 12.0681ZM27.5502 21.7437L23.1969 22.7681V28.7588C23.1969 29.1386 23.1461 29.508 23.0481 29.8624C22.6339 31.3811 21.4614 32.6148 19.8665 33.1696L23.6957 36.8664C26.789 35.1825 28.8476 32.1819 28.8476 28.7596V22.7725C28.8476 22.0914 28.2127 21.5882 27.5502 21.7437Z" fill="url(#paint0_linear_7_570)"/>
<defs>
<linearGradient id="paint0_linear_7_570" x1="-0.927765" y1="16.516" x2="39.0899" y2="16.516" gradientUnits="userSpaceOnUse">
<stop stop-color="#B021F5"/>
<stop offset="1" stop-color="#5034FF"/>
</linearGradient>
</defs>
</svg>
